<?xml version="1.0" encoding="utf-8"?>
<!-- Generator: Adobe Illustrator 19.0.0, SVG Export Plug-In . SVG Version: 6.00 Build 0)  -->
<svg version="1.1" id="Calque_1" xmlns="http://www.w3.org/2000/svg" xmlns:xlink="http://www.w3.org/1999/xlink" x="0px" y="0px"
	 viewBox="-435 437 129 128" style="enable-background:new -435 437 129 128;" xml:space="preserve">
<style type="text/css">
	.st0{fill:none;}
	.st1{enable-background:new    ;}
	.st2{fill:none;stroke:#000000;stroke-width:4;stroke-miterlimit:10;}
</style>
<rect id="XMLID_27_" x="-454.8" y="-262" class="st0" width="143.5" height="204.6"/>
<text transform="matrix(1 0 0 1 -454.8101 -194.7783)" style="font-family:'ArialMT'; font-size:92.0284px; letter-spacing:54;">1</text>
<text transform="matrix(1 0 0 1 -365.6101 -194.7783)" style="font-family:'ArialMT'; font-size:92.0284px; letter-spacing:4;">8</text>
<text transform="matrix(1 0 0 1 -454.8101 -84.3783)" style="font-family:'ArialMT'; font-size:92.0284px; letter-spacing:31;">0</text>
<text transform="matrix(1 0 0 1 -366.1101 -84.3783)" style="font-family:'ArialMT'; font-size:92.0284px; letter-spacing:4;">9</text>
<rect id="XMLID_23_" x="-161.4" y="-262" class="st0" width="143.5" height="204.6"/>
<text transform="matrix(1 0 0 1 -161.4116 -194.7783)" style="font-family:'ArialMT'; font-size:92.0284px; letter-spacing:36;">2</text>
<text transform="matrix(1 0 0 1 -72.2116 -194.7783)" style="font-family:'ArialMT'; font-size:92.0284px; letter-spacing:4;">8</text>
<text transform="matrix(1 0 0 1 -161.4116 -84.3783)" style="font-family:'ArialMT'; font-size:92.0284px; letter-spacing:31;">0</text>
<text transform="matrix(1 0 0 1 -72.7116 -84.3783)" style="font-family:'ArialMT'; font-size:92.0284px; letter-spacing:4;">9</text>
<g id="XMLID_1365_">
	<g id="XMLID_15_">
		<line id="XMLID_18_" class="st2" x1="-277" y1="-219" x2="-201" y2="-219"/>
		<g id="XMLID_16_">
			<polygon id="XMLID_17_" points="-213.9,-202.7 -216.7,-205.7 -202.2,-219.1 -216.7,-232.5 -213.9,-235.5 -196.4,-219.1 			"/>
		</g>
	</g>
</g>
<line id="XMLID_1364_" class="st2" x1="-241" y1="-162" x2="-241" y2="-57"/>
<g id="XMLID_2_">
	<g id="XMLID_64_">
		<line id="XMLID_67_" class="st2" x1="-420" y1="518" x2="-344" y2="518"/>
		<g id="XMLID_65_">
			<polygon id="XMLID_66_" points="-357,534.4 -359.7,531.4 -345.3,518 -359.7,504.6 -357,501.6 -339.4,518 			"/>
		</g>
	</g>
</g>
</svg>
