<?xml version="1.0" encoding="utf-8"?>
<!-- Generator: Adobe Illustrator 19.0.0, SVG Export Plug-In . SVG Version: 6.00 Build 0)  -->
<svg version="1.1" id="Calque_1" xmlns="http://www.w3.org/2000/svg" xmlns:xlink="http://www.w3.org/1999/xlink" x="0px" y="0px"
	 viewBox="-517 436 129 130" style="enable-background:new -517 436 129 130;" xml:space="preserve">
<style type="text/css">
	.st0{fill:none;}
	.st1{enable-background:new    ;}
	.st2{fill:none;stroke:#000000;stroke-width:4;stroke-miterlimit:10;}
</style>
<rect id="XMLID_27_" x="-532.8" y="-370" class="st0" width="143.5" height="204.6"/>
<text transform="matrix(1 0 0 1 -532.8101 -302.7783)" style="font-family:'ArialMT'; font-size:92.0284px; letter-spacing:54;">1</text>
<text transform="matrix(1 0 0 1 -443.6101 -302.7783)" style="font-family:'ArialMT'; font-size:92.0284px; letter-spacing:4;">8</text>
<text transform="matrix(1 0 0 1 -532.8101 -192.3783)" style="font-family:'ArialMT'; font-size:92.0284px; letter-spacing:31;">0</text>
<text transform="matrix(1 0 0 1 -444.1101 -192.3783)" style="font-family:'ArialMT'; font-size:92.0284px; letter-spacing:4;">9</text>
<rect id="XMLID_23_" x="-239.4" y="-370" class="st0" width="143.5" height="204.6"/>
<text transform="matrix(1 0 0 1 -239.4116 -302.7783)" style="font-family:'ArialMT'; font-size:92.0284px; letter-spacing:36;">2</text>
<text transform="matrix(1 0 0 1 -150.2116 -302.7783)" style="font-family:'ArialMT'; font-size:92.0284px; letter-spacing:4;">8</text>
<text transform="matrix(1 0 0 1 -239.4116 -192.3783)" style="font-family:'ArialMT'; font-size:92.0284px; letter-spacing:31;">0</text>
<text transform="matrix(1 0 0 1 -150.7116 -192.3783)" style="font-family:'ArialMT'; font-size:92.0284px; letter-spacing:4;">9</text>
<g id="XMLID_1365_">
	<g id="XMLID_15_">
		<line id="XMLID_18_" class="st2" x1="-355" y1="-327" x2="-279" y2="-327"/>
		<g id="XMLID_16_">
			<polygon id="XMLID_17_" points="-291.9,-310.7 -294.7,-313.7 -280.2,-327.1 -294.7,-340.5 -291.9,-343.5 -274.4,-327.1 			"/>
		</g>
	</g>
</g>
<line id="XMLID_1364_" class="st2" x1="-319" y1="-270" x2="-319" y2="-165"/>
<line id="XMLID_1_" class="st2" x1="-461" y1="462" x2="-461" y2="567"/>
</svg>
